<?xml version="1.0" encoding="UTF-8"?><svg xmlns="http://www.w3.org/2000/svg" viewBox="0 0 1024 1024"><defs><style>.d{fill:#df231d;}.e{fill-rule:evenodd;opacity:.36;}.e,.f{fill:#fff;}</style></defs><g id="a"><rect class="d" width="1024" height="1024"/></g><g id="b"><path class="e" d="M512,1470.96c-293.99,0-532.32-238.33-532.32-532.32S218.01,406.32,512,406.32s532.32,238.33,532.32,532.32c0,141.18-56.08,276.58-155.91,376.41-99.83,99.83-235.23,155.91-376.41,155.91ZM309.12,604.01h398.74c25.41,0,46.01,18.77,46.01,41.93s-20.6,41.93-46.01,41.93h-153.96v76.94c140.67,7.13,251.19,123.05,251.6,263.91v55.91c0,23.15-18.77,41.92-41.93,41.92s-41.93-18.77-41.93-41.92v-55.91c-.32-94.61-73.39-173.03-167.74-180.04v391.38c0,23.16-18.77,41.93-41.93,41.93s-41.93-18.77-41.93-41.93v-391.38c-94.35,7-167.41,85.43-167.74,180.04v55.91c0,23.15-18.78,41.92-41.93,41.92s-41.93-18.77-41.93-41.92v-55.91c.41-140.85,110.93-256.77,251.61-263.91v-76.94h-160.91c-25.41,0-46.01-18.77-46.01-41.93s20.6-41.93,46.01-41.93Z"/></g><g id="c"><path class="f" d="M214.23,73.11c1.31-.19,2.89-.43,3.97.52.93.95.62,2.4.58,3.6-1.6,15.3-1.27,30.7-1.66,46.06-.37,13.49-.53,27.01.35,40.48.08,17.76.1,35.54,1.39,53.26.79,9.22.93,18.49,1.56,27.72,1.51,28.57,4.33,57.06,6.84,85.56.49,7.83,1.18,15.67,2.39,23.43.34,1.88.26,3.82.71,5.69.46,1.76,2.7,1.04,4.01,1.01,10.62-1.71,21.43-2.14,32.17-1.63,25.23,1.01,50.28,5.35,74.56,12.25,18.68,5.01,36.83,12.05,53.88,21.18,7.9,4.28,15.03,9.82,21.73,15.77,4.73,4.32,7.94,10.32,8.63,16.72.9,7.99-1.45,15.96-4.7,23.18-3.49,7.65-8.94,14.21-14.94,20.04-10.72,10.7-23.46,19.2-36.9,26.09-16.94,8.87-34.78,16.04-53.18,21.26-14.48,4.17-29.36,6.7-44.19,9.24-20.95,3.37-42.17,5.78-63.42,5.01-3.67,0-7.35-.02-11.02.03-1.04-.03-2.3.09-3.07-.76-1.01-1.03-.88-2.6-1.03-3.93-1.49-23.12-4.03-46.15-6.1-69.22-1.37-14.57-2.71-29.13-4.1-43.7-2.58-22.68-5.15-45.35-7.77-68.03-3.13-25.05-6.29-50.1-9.38-75.16-2.06-20.64-5.81-41.05-9.02-61.52-3.69-22.53-6.97-45.14-11.31-67.55-1.74-9.49-3.71-18.93-5.6-28.39-.32-1.86-.71-3.72-.91-5.61-.19-1.15.63-2.19,1.67-2.57,21.36-8.67,42.35-18.23,63.8-26.67,3.29-1.27,6.57-2.71,10.06-3.37ZM265.78,407.19c3.51,25.79,7.07,51.58,10.74,77.35,2.35-.31,4.04-2.09,5.92-3.36,15.74-11.35,31.28-22.97,46.51-34.99,3.24-2.39,5.96-5.37,8.96-8.04.87-.87,1.96-1.66,2.32-2.89-.23-1.24-1.52-1.74-2.54-2.21-3.17-1.31-6.35-2.61-9.52-3.95-19.41-8.32-39.18-15.8-59.28-22.27-1.04-.39-2.09.13-3.1.36Z"/><path class="f" d="M439.7,209.65c6.99-.73,14.12-.82,21.07.42,1.85.24,3.09,1.95,3.17,3.75,1.93,20.15,3.76,40.31,5.68,60.46.16,1.83.77,3.63.58,5.48-.23,1.51-1.94,1.86-3.21,1.95-6.51.37-13.03.7-19.54,1.19-1.03.21-1.91-.58-2.01-1.58-2.66-22.69-5.62-45.36-8.35-68.04-.37-1.73.85-3.44,2.61-3.64Z"/><path class="f" d="M404.1,217.08c6.8-1.29,13.68-2.15,20.55-3.05,1.01-.09,2.28-.29,3,.62.93,1.2,1.04,2.79,1.29,4.24,2.91,21.04,6.77,42.06,6.91,63.37.18,1.71-1.54,2.63-2.98,2.86-4.11.9-8.23,1.76-12.33,2.7-1.08.18-2.23.54-3.3.17-1.08-.53-1.35-1.83-1.58-2.9-3.78-21.67-7.55-43.35-11.35-65.02-.16-.99-.18-2-.21-3Z"/><path class="f" d="M456.21,304.6c4.36-.45,8.8-.71,13.16-.06,2.07.27,4.01,1.56,4.8,3.55,1.35,3.21,1.67,6.72,2.28,10.12,3.69,22.49,5.64,45.22,8.36,67.83,3.51,31.34,6.46,62.74,9.74,94.11.35,4.03.92,8.05,1.17,12.09.09,1.61-1.84,1.5-2.95,1.7-11.44,1.28-22.87,2.62-34.3,3.94-1.38.06-3.37.49-4.14-1.03-.7-1.63-.8-3.45-1.19-5.17-6.23-31.97-12.51-63.93-18.76-95.89-5.12-27.15-9.89-54.38-15.04-81.53-.19-1.03-.29-2.26.57-3.03.93-.84,2.25-.94,3.41-1.25,10.85-2.37,21.82-4.32,32.88-5.38Z"/><path class="f" d="M603.84,73.11c1.31-.19,2.89-.43,3.97.52.93.95.62,2.4.58,3.6-1.6,15.3-1.27,30.7-1.66,46.06-.37,13.49-.53,27.01.35,40.48.08,17.76.1,35.54,1.39,53.26.79,9.22.93,18.49,1.56,27.72,1.51,28.57,4.33,57.06,6.84,85.56.49,7.83,1.18,15.67,2.39,23.43.34,1.88.26,3.82.71,5.69.46,1.76,2.7,1.04,4.01,1.01,10.62-1.71,21.43-2.14,32.17-1.63,25.23,1.01,50.28,5.35,74.56,12.25,18.68,5.01,36.83,12.05,53.88,21.18,7.9,4.28,15.03,9.82,21.73,15.77,4.73,4.32,7.94,10.32,8.63,16.72.9,7.99-1.45,15.96-4.7,23.18-3.49,7.65-8.94,14.21-14.94,20.04-10.72,10.7-23.46,19.2-36.9,26.09-16.94,8.87-34.78,16.04-53.18,21.26-14.48,4.17-29.36,6.7-44.19,9.24-20.95,3.37-42.17,5.78-63.42,5.01-3.67,0-7.35-.02-11.02.03-1.04-.03-2.3.09-3.07-.76-1.01-1.03-.88-2.6-1.03-3.93-1.49-23.12-4.03-46.15-6.1-69.22-1.37-14.57-2.71-29.13-4.1-43.7-2.58-22.68-5.15-45.35-7.77-68.03-3.13-25.05-6.29-50.1-9.38-75.16-2.06-20.64-5.81-41.05-9.02-61.52-3.69-22.53-6.97-45.14-11.31-67.55-1.74-9.49-3.71-18.93-5.6-28.39-.32-1.86-.71-3.72-.91-5.61-.19-1.15.63-2.19,1.67-2.57,21.36-8.67,42.35-18.23,63.8-26.67,3.29-1.27,6.57-2.71,10.06-3.37ZM655.39,407.19c3.51,25.79,7.07,51.58,10.74,77.35,2.35-.31,4.04-2.09,5.92-3.36,15.74-11.35,31.28-22.97,46.51-34.99,3.24-2.39,5.96-5.37,8.96-8.04.87-.87,1.96-1.66,2.32-2.89-.23-1.24-1.52-1.74-2.54-2.21-3.17-1.31-6.35-2.61-9.52-3.95-19.41-8.32-39.18-15.8-59.28-22.27-1.04-.39-2.09.13-3.1.36Z"/><path class="f" d="M829.31,209.65c6.99-.73,14.12-.82,21.07.42,1.85.24,3.09,1.95,3.17,3.75,1.93,20.15,3.76,40.31,5.68,60.46.16,1.83.77,3.63.58,5.48-.23,1.51-1.94,1.86-3.21,1.95-6.51.37-13.03.7-19.54,1.19-1.03.21-1.91-.58-2.01-1.58-2.66-22.69-5.62-45.36-8.35-68.04-.37-1.73.85-3.44,2.61-3.64Z"/><path class="f" d="M793.71,217.08c6.8-1.29,13.68-2.15,20.55-3.05,1.01-.09,2.28-.29,3,.62.93,1.2,1.04,2.79,1.29,4.24,2.91,21.04,6.77,42.06,6.91,63.37.18,1.71-1.54,2.63-2.98,2.86-4.11.9-8.23,1.76-12.33,2.7-1.08.18-2.23.54-3.3.17-1.08-.53-1.35-1.83-1.58-2.9-3.78-21.67-7.55-43.35-11.35-65.02-.16-.99-.18-2-.21-3Z"/><path class="f" d="M845.82,304.6c4.36-.45,8.8-.71,13.16-.06,2.07.27,4.01,1.56,4.8,3.55,1.35,3.21,1.67,6.72,2.28,10.12,3.69,22.49,5.64,45.22,8.36,67.83,3.51,31.34,6.46,62.74,9.74,94.11.35,4.03.92,8.05,1.17,12.09.09,1.61-1.84,1.5-2.95,1.7-11.44,1.28-22.87,2.62-34.3,3.94-1.38.06-3.37.49-4.14-1.03-.7-1.63-.8-3.45-1.19-5.17-6.23-31.97-12.51-63.93-18.76-95.89-5.12-27.15-9.89-54.38-15.04-81.53-.19-1.03-.29-2.26.57-3.03.93-.84,2.25-.94,3.41-1.25,10.85-2.37,21.82-4.32,32.88-5.38Z"/></g></svg>